# xmcd
#
# Track frame offsets:
#	150
#	21060
#	37989
#	58452
#	75481
#	89327
#	108623
#	123404
#	138406
#	156721
#	174063
#	189222
#
# Disc length: 2819 seconds
#
# Revision: 1
# Processed by: cddbd v1.5.2PL0 Copyright (c) Steve Scherf et al.
# Submitted via: audiograbber 1.83.01
#
DISCID=990b010c
DTITLE=Magni Christiansen - Við Vegin
DYEAR=2006
DGENRE=Gospel
TTITLE0=Mítt ynskji er at sýggja Jesus fyrst
TTITLE1=Far tær ein túr
TTITLE2=Fram um øll veldi
TTITLE3=Í gjár í dag ja alla tíð
TTITLE4=Han hevur valdið
TTITLE5=Við vegin
TTITLE6=Hin misti friðurin
TTITLE7=Eg vil ikki tiga
TTITLE8=Kom innar
TTITLE9=Sangur mín ljóðar tí skal
TTITLE10=Hví júst eg
TTITLE11=Tú svíkti ei 
EXTD=
EXTT0=
EXTT1=
EXTT2=
EXTT3=
EXTT4=
EXTT5=
EXTT6=
EXTT7=
EXTT8=
EXTT9=
EXTT10=
EXTT11=
PLAYORDER=
